<?xml version="1.0" encoding="UTF-8"?>
<svg width="1866px" height="473px" viewBox="0 0 1866 473" version="1.1" xmlns="http://www.w3.org/2000/svg" xmlns:xlink="http://www.w3.org/1999/xlink">
    <!-- Generator: Sketch 57.1 (83088) - https://sketch.com -->
    <title>header-illustration</title>
    <desc>Created with Sketch.</desc>
    <defs>
        <linearGradient x1="50%" y1="6.63775008%" x2="50%" y2="91.5982423%" id="linearGradient-1">
            <stop stop-color="#E2E2E2" offset="0%"></stop>
            <stop stop-color="#FAFAFA" offset="100%"></stop>
        </linearGradient>
        <polygon id="path-2" points="8.11840137 0 33.2287582 0 40 201 0 201"></polygon>
        <linearGradient x1="50%" y1="8.87590021%" x2="50%" y2="100%" id="linearGradient-4">
            <stop stop-color="#D7D7D7" offset="0%"></stop>
            <stop stop-color="#E3E3E3" stop-opacity="0.289963942" offset="83.6016681%"></stop>
            <stop stop-color="#F9F9F9" stop-opacity="0" offset="100%"></stop>
        </linearGradient>
        <linearGradient x1="50%" y1="8.87590021%" x2="50%" y2="100%" id="linearGradient-5">
            <stop stop-color="#D7D7D7" offset="0%"></stop>
            <stop stop-color="#E3E3E3" stop-opacity="0.289963942" offset="83.6016681%"></stop>
            <stop stop-color="#F9F9F9" stop-opacity="0" offset="100%"></stop>
        </linearGradient>
        <linearGradient x1="55.0746273%" y1="27.9332383%" x2="50%" y2="100%" id="linearGradient-6">
            <stop stop-color="#F2F2F2" offset="0%"></stop>
            <stop stop-color="#F2F2F2" offset="74.4114231%"></stop>
            <stop stop-color="#FAFAFA" offset="100%"></stop>
        </linearGradient>
        <linearGradient x1="0%" y1="76.6475003%" x2="100%" y2="76.6475003%" id="linearGradient-7">
            <stop stop-color="#FBFBFB" offset="0%"></stop>
            <stop stop-color="#F5F5F5" offset="100%"></stop>
        </linearGradient>
        <linearGradient x1="100%" y1="42.7096716%" x2="0%" y2="45.2559929%" id="linearGradient-8">
            <stop stop-color="#EFEFEF" offset="0%"></stop>
            <stop stop-color="#FFFFFF" offset="100%"></stop>
        </linearGradient>
        <linearGradient x1="50%" y1="8.87590021%" x2="50%" y2="100%" id="linearGradient-9">
            <stop stop-color="#F1F1F1" offset="0%"></stop>
            <stop stop-color="#F3F3F3" stop-opacity="0.795091221" offset="64.1618497%"></stop>
            <stop stop-color="#F9F9F9" stop-opacity="0" offset="100%"></stop>
        </linearGradient>
        <linearGradient x1="50%" y1="8.87590021%" x2="50%" y2="100%" id="linearGradient-10">
            <stop stop-color="#F1F1F1" offset="0%"></stop>
            <stop stop-color="#F3F3F3" stop-opacity="0.795091221" offset="64.1618497%"></stop>
            <stop stop-color="#F9F9F9" stop-opacity="0" offset="100%"></stop>
        </linearGradient>
        <linearGradient x1="-2.68882096%" y1="50%" x2="100%" y2="50%" id="linearGradient-11">
            <stop stop-color="#FFFFFF" offset="0%"></stop>
            <stop stop-color="#E5E5E5" offset="100%"></stop>
        </linearGradient>
        <linearGradient x1="50%" y1="0%" x2="50%" y2="82.3202186%" id="linearGradient-12">
            <stop stop-color="#E4E4E4" offset="0%"></stop>
            <stop stop-color="#F1F1F1" offset="100%"></stop>
        </linearGradient>
        <linearGradient x1="50%" y1="0%" x2="50%" y2="82.3202186%" id="linearGradient-13">
            <stop stop-color="#E4E4E4" offset="0%"></stop>
            <stop stop-color="#F1F1F1" offset="100%"></stop>
        </linearGradient>
        <linearGradient x1="50%" y1="0%" x2="50%" y2="100%" id="linearGradient-14">
            <stop stop-color="#EFEFEF" offset="0%"></stop>
            <stop stop-color="#E6E6E6" offset="100%"></stop>
        </linearGradient>
        <path d="M30.8331272,0 L32.49,83.911 L39.396805,83.9111111 C40.5013745,83.9111111 41.396805,84.8065416 41.396805,85.9111111 L41.396805,87.9047619 C41.396805,89.0093314 40.5013745,89.9047619 39.396805,89.9047619 L32.608,89.904 L33.833,151.915 L44.4483295,159.591758 L44.4483295,168.76822 L54.20491,168.76822 L61,175.681619 L51.6521605,196.393206 L42.2688487,206.09045 L42.2688487,216.722245 L35.423,216.722 L38.3786113,472 L23.287643,472 L26.242,216.722 L18.7311513,216.722245 L18.7311513,206.09045 L9.34783947,196.393206 L1.13686838e-13,175.681619 L6.79509,168.76822 L16.5516705,168.76822 L16.5516705,159.591758 L27.842,151.426 L29.057,89.904 L22.2694494,89.9047619 C21.1648799,89.9047619 20.2694494,89.0093314 20.2694494,87.9047619 L20.2694494,85.9111111 C20.2694494,84.8065416 21.1648799,83.9111111 22.2694494,83.9111111 L29.176,83.911 L30.8331272,0 Z" id="path-15"></path>
    </defs>
    <g id="Page-1" stroke="none" stroke-width="1" fill="none" fill-rule="evenodd">
        <g id="flutter-io_宽屏" transform="translate(-162.000000, -180.000000)">
            <g id="header-image" transform="translate(162.000000, 64.000000)">
                <g id="编组-6" transform="translate(0.000000, 67.000000)">
                    <g id="header-illustration" transform="translate(0.000000, 49.000000)">
                        <g id="Group-28-Copy" opacity="0.5" transform="translate(236.000000, 158.000000)">
                            <g id="Group-2" opacity="0.400000006" transform="translate(0.000000, 84.000000)"></g>
                            <path d="M1029.88372,137.071662 C1075.36919,138.513289 1132.17399,164.530948 1200.2981,215.124638 C1254.01539,178.171 1294.34176,159.538244 1321.28167,159.226076 C1365.79357,158.710292 1468.69968,209.968266 1630,313 L1078.11135,310.818246 C1086.0611,304.021466 1093.84385,297.453235 1101.4596,291.113554 L738,299.666667 L774.639254,258.174766 C881.31093,175.427056 966.392419,135.059354 1029.88372,137.071662 Z" id="Combined-Shape" fill="url(#linearGradient-1)" fill-rule="nonzero" opacity="0.400000006"></path>
                            <g id="Rectangle-+-Rectangle-Copy-31-+-Rectangle-Copy-33-+-Rectangle-Copy-32-+-Rectangle-Copy-37-+-Rectangle-Copy-36-+-Rectangle-Copy-35-+-Rectangle-Copy-34-+-Rectangle-Copy-45-+-Rectangle-Copy-44-+-Rectangle-Copy-43-+-Rectangle-Copy-42-+-Rectangle-Copy-41-+-Rectangle-Copy-40-+-Rectangle-Copy-39-+-Rectangle-Copy-38-Mask" transform="translate(1277.000000, 113.802317)">
                                <mask id="mask-3" fill="white">
                                    <use xlink:href="#path-2"></use>
                                </mask>
                                <use id="Mask" fill="#EEEEEE" fill-rule="nonzero" xlink:href="#path-2"></use>
                                <rect id="Rectangle" fill="#E5E5E5" fill-rule="nonzero" mask="url(#mask-3)" x="-5" y="0" width="52" height="6"></rect>
                                <rect id="Rectangle-Copy-31" fill="#E5E5E5" fill-rule="nonzero" mask="url(#mask-3)" x="-5" y="12" width="52" height="6"></rect>
                                <rect id="Rectangle-Copy-33" fill="#E5E5E5" fill-rule="nonzero" mask="url(#mask-3)" x="-5" y="25" width="52" height="6"></rect>
                                <rect id="Rectangle-Copy-32" fill="#E5E5E5" fill-rule="nonzero" mask="url(#mask-3)" x="-5" y="37" width="52" height="6"></rect>
                                <rect id="Rectangle-Copy-37" fill="#E5E5E5" fill-rule="nonzero" mask="url(#mask-3)" x="-5" y="51" width="52" height="6"></rect>
                                <rect id="Rectangle-Copy-36" fill="#E5E5E5" fill-rule="nonzero" mask="url(#mask-3)" x="-5" y="63" width="52" height="6"></rect>
                                <rect id="Rectangle-Copy-35" fill="#E5E5E5" fill-rule="nonzero" mask="url(#mask-3)" x="-5" y="75" width="52" height="6"></rect>
                                <rect id="Rectangle-Copy-34" fill="#E5E5E5" fill-rule="nonzero" mask="url(#mask-3)" x="-5" y="88" width="52" height="6"></rect>
                                <rect id="Rectangle-Copy-45" fill="#E5E5E5" fill-rule="nonzero" mask="url(#mask-3)" x="-5" y="100" width="52" height="6"></rect>
                                <rect id="Rectangle-Copy-44" fill="#E5E5E5" fill-rule="nonzero" mask="url(#mask-3)" x="-5" y="113" width="52" height="6"></rect>
                                <rect id="Rectangle-Copy-43" fill="#E5E5E5" fill-rule="nonzero" mask="url(#mask-3)" x="-5" y="125" width="52" height="6"></rect>
                                <rect id="Rectangle-Copy-42" fill="#E5E5E5" fill-rule="nonzero" mask="url(#mask-3)" x="-5" y="137" width="52" height="6"></rect>
                                <rect id="Rectangle-Copy-41" fill="#E5E5E5" fill-rule="nonzero" mask="url(#mask-3)" x="-5" y="150" width="52" height="6"></rect>
                                <rect id="Rectangle-Copy-40" fill="#E5E5E5" fill-rule="nonzero" mask="url(#mask-3)" x="-5" y="163" width="52" height="6"></rect>
                                <rect id="Rectangle-Copy-39" fill="#E5E5E5" fill-rule="nonzero" mask="url(#mask-3)" x="-5" y="175" width="52" height="6"></rect>
                                <rect id="Rectangle-Copy-38" fill="#E5E5E5" fill-rule="nonzero" mask="url(#mask-3)" x="-5" y="187" width="52" height="6"></rect>
                            </g>
                            <g id="大雁塔" transform="translate(1158.000000, 0.000000)" fill-rule="nonzero">
                                <g id="Group-20-Copy-7" transform="translate(0.000000, 248.000000)">
                                    <rect id="Rectangle" fill="#E4E4E4" x="26.7070082" y="35.4066478" width="65.0257592" height="27.4115983"></rect>
                                    <rect id="Rectangle" fill="#E4E4E4" x="30.190531" y="39.9752475" width="58.0587135" height="18.2743989"></rect>
                                    <path d="M14.4395442,36.5487977 C14.4395442,35.0905149 9.62636283,33.4009438 1.03028697e-13,31.4800843 L1.03028697e-13,31.4800843 L60.3810621,31.4800843 L118.439776,31.4800843 C108.813413,33.4009438 104.000231,35.0905149 104.000231,36.5487977 L58.0587135,36.5487977 L58.0587135,36.5487977 Z" id="Combined-Shape" fill="#E4E4E4"></path>
                                    <path d="M-1.0658141e-14,31.4800843 L-1.0658141e-14,27.2584428 C4.64570632,27.7798518 10.7646729,26.7615514 18.3568998,24.2035415 C21.7389586,23.0640419 24.5223281,18.8033611 26.7070082,11.4214993 L26.7070082,11.4214993 L56.8975393,0.462782467 L60.3810621,0.462782467 L61.5422364,0.462782467 L90.6420323,11.4214993 C93.4075361,18.0801001 96.452691,22.3407808 99.777497,24.2035415 C103.406495,26.2367291 109.627254,27.2550295 118.439776,27.2584428 L118.439776,31.4800843 L58.0587135,31.4800843 L-1.0658141e-14,31.4800843 Z" id="Combined-Shape" fill="#F2F2F2"></path>
                                </g>
                                <g id="Group-20-Copy-6" transform="translate(0.000000, 197.000000)">
                                    <rect id="Rectangle" fill="#E4E4E4" x="26.7070082" y="35.4066478" width="65.0257592" height="27.4115983"></rect>
                                    <rect id="Rectangle" fill="#E4E4E4" x="30.190531" y="39.9752475" width="58.0587135" height="18.2743989"></rect>
                                    <path d="M14.4395442,36.5487977 C14.4395442,35.0905149 9.62636283,33.4009438 1.03028697e-13,31.4800843 L1.03028697e-13,31.4800843 L60.3810621,31.4800843 L118.439776,31.4800843 C108.813413,33.4009438 104.000231,35.0905149 104.000231,36.5487977 L58.0587135,36.5487977 L58.0587135,36.5487977 Z" id="Combined-Shape" fill="#E4E4E4"></path>
                                    <path d="M-1.0658141e-14,31.4800843 L-1.0658141e-14,27.2584428 C4.64570632,27.7798518 10.7646729,26.7615514 18.3568998,24.2035415 C21.7389586,23.0640419 24.5223281,18.8033611 26.7070082,11.4214993 L26.7070082,11.4214993 L56.8975393,0.462782467 L60.3810621,0.462782467 L61.5422364,0.462782467 L90.6420323,11.4214993 C93.4075361,18.0801001 96.452691,22.3407808 99.777497,24.2035415 C103.406495,26.2367291 109.627254,27.2550295 118.439776,27.2584428 L118.439776,31.4800843 L58.0587135,31.4800843 L-1.0658141e-14,31.4800843 Z" id="Combined-Shape" fill="#F2F2F2"></path>
                                </g>
                                <g id="Group-20-Copy-5" transform="translate(0.000000, 144.000000)">
                                    <rect id="Rectangle" fill="#E4E4E4" x="26.7070082" y="35.4066478" width="65.0257592" height="27.4115983"></rect>
                                    <rect id="Rectangle" fill="#E4E4E4" x="30.190531" y="39.9752475" width="58.0587135" height="18.2743989"></rect>
                                    <path d="M14.4395442,36.5487977 C14.4395442,35.0905149 9.62636283,33.4009438 1.03028697e-13,31.4800843 L1.03028697e-13,31.4800843 L60.3810621,31.4800843 L118.439776,31.4800843 C108.813413,33.4009438 104.000231,35.0905149 104.000231,36.5487977 L58.0587135,36.5487977 L58.0587135,36.5487977 Z" id="Combined-Shape" fill="#E4E4E4"></path>
                                    <path d="M-1.0658141e-14,31.4800843 L-1.0658141e-14,27.2584428 C4.64570632,27.7798518 10.7646729,26.7615514 18.3568998,24.2035415 C21.7389586,23.0640419 24.5223281,18.8033611 26.7070082,11.4214993 L26.7070082,11.4214993 L56.8975393,0.462782467 L60.3810621,0.462782467 L61.5422364,0.462782467 L90.6420323,11.4214993 C93.4075361,18.0801001 96.452691,22.3407808 99.777497,24.2035415 C103.406495,26.2367291 109.627254,27.2550295 118.439776,27.2584428 L118.439776,31.4800843 L58.0587135,31.4800843 L-1.0658141e-14,31.4800843 Z" id="Combined-Shape" fill="#F2F2F2"></path>
                                </g>
                                <g id="Group-20-Copy" transform="translate(0.000000, 93.000000)">
                                    <rect id="Rectangle" fill="#E4E4E4" x="26.7070082" y="35.4066478" width="65.0257592" height="27.4115983"></rect>
                                    <rect id="Rectangle" fill="#E4E4E4" x="30.190531" y="39.9752475" width="58.0587135" height="18.2743989"></rect>
                                    <path d="M14.4395442,36.5487977 C14.4395442,35.0905149 9.62636283,33.4009438 1.03028697e-13,31.4800843 L1.03028697e-13,31.4800843 L60.3810621,31.4800843 L118.439776,31.4800843 C108.813413,33.4009438 104.000231,35.0905149 104.000231,36.5487977 L58.0587135,36.5487977 L58.0587135,36.5487977 Z" id="Combined-Shape" fill="#E4E4E4"></path>
                                    <path d="M-1.0658141e-14,31.4800843 L-1.0658141e-14,27.2584428 C4.64570632,27.7798518 10.7646729,26.7615514 18.3568998,24.2035415 C21.7389586,23.0640419 24.5223281,18.8033611 26.7070082,11.4214993 L26.7070082,11.4214993 L56.8975393,0.462782467 L60.3810621,0.462782467 L61.5422364,0.462782467 L90.6420323,11.4214993 C93.4075361,18.0801001 96.452691,22.3407808 99.777497,24.2035415 C103.406495,26.2367291 109.627254,27.2550295 118.439776,27.2584428 L118.439776,31.4800843 L58.0587135,31.4800843 L-1.0658141e-14,31.4800843 Z" id="Combined-Shape" fill="#F2F2F2"></path>
                                </g>
                                <g id="Group-20" transform="translate(0.000000, 41.000000)">
                                    <rect id="Rectangle" fill="#D7D7D7" x="26.7070082" y="35.4066478" width="65.0257592" height="27.4115983"></rect>
                                    <rect id="Rectangle" fill="#D7D7D7" x="30.190531" y="39.9752475" width="58.0587135" height="18.2743989"></rect>
                                    <path d="M14.4395442,36.5487977 C14.4395442,35.0905149 9.62636283,33.4009438 1.03028697e-13,31.4800843 L1.03028697e-13,31.4800843 L60.3810621,31.4800843 L118.439776,31.4800843 C108.813413,33.4009438 104.000231,35.0905149 104.000231,36.5487977 L58.0587135,36.5487977 L58.0587135,36.5487977 Z" id="Combined-Shape" fill="#D7D7D7"></path>
                                    <path d="M-1.0658141e-14,31.4800843 L-1.0658141e-14,27.2584428 C10.4687496,25.79131 19.4992378,23.7787387 27.0914647,21.2207288 C34.6836916,18.6627189 44.6190498,11.7434034 56.8975393,0.462782467 L56.8975393,0.462782467 L60.3810621,0.462782467 L61.5422364,0.462782467 C73.8207258,11.7434034 83.756084,18.6627189 91.3483109,21.2207288 C98.9405378,23.7787387 107.971026,25.79131 118.439776,27.2584428 L118.439776,31.4800843 L58.0587135,31.4800843 L-1.0658141e-14,31.4800843 Z" id="Combined-Shape" fill="#F2F2F2"></path>
                                </g>
                                <rect id="Rectangle" fill="#D7D7D7" x="56" y="0" width="4" height="37" rx="2"></rect>
                                <rect id="Rectangle" fill="#D7D7D7" x="54" y="32" width="9" height="13"></rect>
                            </g>
                            <g id="故宫" transform="translate(844.000000, 175.000000)" fill-rule="nonzero">
                                <g id="Group-19-Copy">
                                    <g id="Group-18-Copy" transform="translate(190.403051, 70.000000) scale(-1, 1) translate(-190.403051, -70.000000) translate(0.403051, 0.000000)">
                                        <path d="M189.822398,0.0669433473 L143.074565,0.0669433473 C139.22438,5.01240019 134.175687,8.19297719 127.928485,9.60867432 C121.681283,11.0243715 114.85268,11.7664271 107.442675,11.8348411 L107.442675,13.8313805 L189.822398,13.8313805 L189.822398,0.0669433473 Z" id="Path-64" fill="#CCCCCC"></path>
                                        <polygon id="Path-65" fill="#E1E0E0" points="109.145776 13.8313805 124.653429 20.9226042 189.822398 20.9226042 189.822398 13.8313805"></polygon>
                                        <rect id="Rectangle" fill="#CCCCCC" x="122.742302" y="15.7850977" width="67.0800954" height="2.87001777"></rect>
                                        <rect id="Rectangle" fill="#E1E0E0" x="124.169538" y="18.6551155" width="65.6528594" height="9.32755776"></rect>
                                        <rect id="Rectangle" fill="#CCCCCC" x="124.169538" y="18.6551155" width="2.85447215" height="9.32755776"></rect>
                                        <rect id="Rectangle-Copy-3" fill="#CCCCCC" x="149.859788" y="18.6551155" width="2.85447215" height="9.32755776"></rect>
                                        <rect id="Rectangle-Copy-4" fill="#CCCCCC" x="175.550037" y="18.6551155" width="2.85447215" height="9.32755776"></rect>
                                        <path d="M189.822398,27.9826733 L124.169538,27.9826733 C122.320164,30.4307875 118.842682,32.0786895 113.737094,32.9263793 C108.631506,33.774069 100.153526,34.2835026 88.3031523,34.45468 L88.3031523,36.138487 L189.822398,36.138487 L189.822398,27.9826733 Z" id="Path-66" fill="#CCCCCC"></path>
                                        <polygon id="Path-67" fill="#E1E0E0" points="189.822398 36.138487 88.3031523 36.138487 107.677899 45.2027799 189.822398 45.2027799"></polygon>
                                        <rect id="Rectangle" fill="#CCCCCC" x="111.324414" y="45.2027799" width="2.85447215" height="22.9601422"></rect>
                                        <rect id="Rectangle-Copy-5" fill="#CCCCCC" x="122.742302" y="45.2027799" width="2.85447215" height="22.9601422"></rect>
                                        <rect id="Rectangle-Copy-6" fill="#CCCCCC" x="149.859788" y="45.2027799" width="2.85447215" height="22.9601422"></rect>
                                        <rect id="Rectangle-Copy-10" fill="#F2928F" x="175.550037" y="45.2027799" width="2.85447215" height="22.9601422"></rect>
                                        <rect id="Rectangle" fill="#F2F2F2" x="125.596774" y="45.2027799" width="24.2630132" height="22.9601422"></rect>
                                        <rect id="Rectangle" fill="#E1E0E0" x="129.164865" y="49.5078065" width="17.1268329" height="10.0450622"></rect>
                                        <rect id="Rectangle-Copy-12" fill="#F2F2F2" x="152.71426" y="45.2027799" width="24.2630132" height="22.9601422"></rect>
                                        <rect id="Rectangle-Copy-11" fill="#E1E0E0" x="154.855114" y="49.5078065" width="17.1268329" height="10.0450622"></rect>
                                        <rect id="Rectangle-Copy-14" fill="#F9F9F9" x="177.072341" y="45.2027799" width="24.2630132" height="22.9601422"></rect>
                                        <path d="M86.3477824,78.2079843 L86.3477824,68.1629221 L190.536016,68.1629221 L292.599347,68.1629221 L292.599347,78.2079843 L188.002533,78.2079843 L86.3477824,78.2079843 Z" id="形状结合" fill="#E6E6E6"></path>
                                        <path d="M292.599347,78.2079843 L292.599347,99.0156131 L379.285749,99.0156131 L379.285749,139.996355 L292.599347,139.996355 L292.599347,139.913366 L86.3477824,139.913366 L86.3477824,139.996355 L3.55271368e-14,139.996355 L3.55271368e-14,99.0156131 L86.3477824,99.0156131 L86.3477824,78.2079843 L292.599347,78.2079843 Z" id="形状结合" fill="#F2F2F2"></path>
                                        <rect id="Rectangle" fill="#E1E0E0" x="107.042705" y="103.32064" width="17.1268329" height="22.9601422" rx="8.56341644"></rect>
                                        <rect id="Rectangle-Copy-16" fill="#DDDDDD" x="173.409183" y="91.8405687" width="30.6855756" height="36.5927266" rx="15.3427878"></rect>
                                        <rect id="Rectangle-Copy-15" fill="#E1E0E0" x="140.582753" y="99.0156131" width="17.1268329" height="31.5701955" rx="8.56341644"></rect>
                                        <rect id="Rectangle" fill="#E6E6E6" x="0" y="88.9705509" width="86.3477824" height="10.0450622"></rect>
                                        <rect id="Rectangle-Copy-13" fill="#E4E4E4" x="180.640431" y="49.5078065" width="17.1268329" height="10.0450622"></rect>
                                    </g>
                                </g>
                                <g id="Group-18-Copy" transform="translate(2.000000, 0.000000)">
                                    <path d="M189.869049,0.0669229129 L143.109727,0.0669229129 C139.258597,5.01087016 134.208663,8.19047628 127.959925,9.60574127 C121.711188,11.0210063 114.880906,11.7628354 107.46908,11.8312286 L107.46908,13.8271585 L189.869049,13.8271585 L189.869049,0.0669229129 Z" id="Path-64" fill="#CCCCCC"></path>
                                    <polygon id="Path-65" fill="#E1E0E0" points="109.1726 13.8271585 124.684065 20.9162176 189.869049 20.9162176 189.869049 13.8271585"></polygon>
                                    <rect id="Rectangle" fill="#CCCCCC" x="122.772468" y="15.7802793" width="67.0965814" height="2.8691417"></rect>
                                    <rect id="Rectangle" fill="#E1E0E0" x="124.200055" y="18.649421" width="65.6689946" height="9.32471052"></rect>
                                    <rect id="Rectangle" fill="#CCCCCC" x="124.200055" y="18.649421" width="2.85517368" height="9.32471052"></rect>
                                    <rect id="Rectangle-Copy-3" fill="#CCCCCC" x="149.896618" y="18.649421" width="2.85517368" height="9.32471052"></rect>
                                    <rect id="Rectangle-Copy-4" fill="#CCCCCC" x="175.593181" y="18.649421" width="2.85517368" height="9.32471052"></rect>
                                    <path d="M189.869049,27.9741315 L124.200055,27.9741315 C122.350226,30.4214985 118.87189,32.0688975 113.765047,32.9163285 C108.658204,33.7637595 100.17814,34.2730376 88.3248541,34.4441627 L88.3248541,36.1274557 L189.869049,36.1274557 L189.869049,27.9741315 Z" id="Path-66" fill="#CCCCCC"></path>
                                    <polygon id="Path-67" fill="#E1E0E0" points="189.869049 36.1274557 88.3248541 36.1274557 107.704362 45.1889817 189.869049 45.1889817"></polygon>
                                    <rect id="Rectangle" fill="#CCCCCC" x="111.351773" y="45.1889817" width="2.85517368" height="22.9531336"></rect>
                                    <rect id="Rectangle-Copy-5" fill="#CCCCCC" x="122.772468" y="45.1889817" width="2.85517368" height="22.9531336"></rect>
                                    <rect id="Rectangle-Copy-6" fill="#CCCCCC" x="149.896618" y="45.1889817" width="2.85517368" height="22.9531336"></rect>
                                    <rect id="Rectangle" fill="#F2F2F2" x="125.627642" y="45.1889817" width="24.2689763" height="22.9531336"></rect>
                                    <rect id="Rectangle" fill="#E1E0E0" x="129.196609" y="49.4926943" width="17.1310421" height="10.0419959"></rect>
                                    <rect id="Rectangle-Copy-12" fill="#F2F2F2" x="152.751792" y="45.1889817" width="24.2689763" height="22.9531336"></rect>
                                    <rect id="Rectangle-Copy-11" fill="#E1E0E0" x="156.320759" y="49.4926943" width="17.1310421" height="10.0419959"></rect>
                                    <rect id="Rectangle-Copy-10" fill="#CCCCCC" x="175.593181" y="45.1889817" width="2.85517368" height="22.9531336"></rect>
                                    <rect id="Rectangle" fill="#E1E0E0" x="107.069013" y="103.289101" width="17.1310421" height="22.9531336" rx="8.56552103"></rect>
                                    <rect id="Rectangle-Copy-15" fill="#E1E0E0" x="140.617304" y="98.9853886" width="17.1310421" height="31.5605587" rx="8.56552103"></rect>
                                    <rect id="Rectangle" fill="#E6E6E6" x="0" y="88.9433926" width="86.3690037" height="10.0419959"></rect>
                                </g>
                                <rect id="Rectangle-Copy-10" fill="#CCCCCC" x="202" y="44" width="4" height="24"></rect>
                            </g>
                            <path d="M1104.1172,191 L1104.1172,183.182677 L1101.16479,183.182677 C1099.83826,182.405222 1098.78333,181.617438 1098,180.819326 C1102.43561,180.156676 1103.14367,179.077755 1104.1172,177.23223 L1104.18189,177.11231 L1104.18189,177.11231 L1104.1172,177.113208 L1104.1172,169.548056 L1101.16479,169.548056 C1099.83826,168.79568 1098.78333,168.033309 1098,167.260942 C1109.5472,165.591518 1112,159 1112,159 C1112,159 1114.2776,165.811235 1125,167.536307 C1124.27262,168.334419 1123.29304,169.122203 1122.06126,169.899658 L1119.31975,169.899658 L1119.31975,177.676351 C1120.22374,179.462344 1120.88122,180.50646 1125,181.147734 C1124.27262,181.920101 1123.29304,182.682473 1122.06126,183.434849 L1119.31975,183.434849 L1119.31975,191 L1112,191 L1104.1172,191 Z" id="Combined-Shape" fill="url(#linearGradient-4)" fill-rule="nonzero"></path>
                            <path d="M1352.86554,315 L1352.86554,296.229618 L1345.91786,296.229618 C1342.79622,294.36285 1340.31373,292.471281 1338.47037,290.554912 C1348.7526,288.987553 1350.52291,286.45029 1352.76334,282.139032 L1352.86554,281.941841 L1352.86554,263.171458 L1345.91786,263.171458 C1342.79622,261.304691 1340.31373,259.413122 1338.47037,257.496753 C1365.64358,253.354638 1370.97037,237 1370.97037,237 C1370.97037,237 1376.29717,253.354638 1403.47037,257.496753 C1401.62702,259.413122 1399.14453,261.304691 1396.02289,263.171458 L1389.07521,263.171458 L1389.07521,281.941841 C1391.36615,286.373181 1393.03236,288.963806 1403.47037,290.554912 C1401.62702,292.471281 1399.14453,294.36285 1396.02289,296.229618 L1389.07521,296.229618 L1389.07521,315 L1370.97037,315 L1352.86554,315 Z" id="Combined-Shape-Copy" fill="url(#linearGradient-5)" fill-rule="nonzero"></path>
                        </g>
                        <g id="Group-45" transform="translate(0.000000, 74.000000)">
                            <rect id="Rectangle-Copy-94" fill="#F8F8F8" x="642" y="91" width="57" height="258"></rect>
                            <rect id="Rectangle-Copy-93" fill="#EFEFEF" x="688" y="189" width="38" height="160"></rect>
                            <path d="M621,105 L648.034,154 L681,154 L681,357 L568,357 L568,154 L593.966,154 L621,105 Z" id="Combined-Shape" fill="url(#linearGradient-6)"></path>
                            <rect id="Rectangle" fill="#F6F6F6" x="347" y="151" width="68" height="160"></rect>
                            <rect id="Rectangle-Copy-76" fill="#F6F6F6" x="843" y="204" width="23" height="74"></rect>
                            <path d="M854,260 L854,271 L865,271 L865,311 L842,311 L842,310 L831,310 L831,260 L854,260 Z" id="Combined-Shape" fill="#EFEFEF"></path>
                            <polygon id="Rectangle-Copy-86" fill="url(#linearGradient-7)" points="140.5 73 321 73 321 278 140.5 278"></polygon>
                            <path d="M281,156 L281,191 L306,191 L306,337 L-4.54747351e-13,337 L-4.54747351e-13,191 L0,156 L281,156 Z" id="Combined-Shape" fill="url(#linearGradient-8)"></path>
                            <g id="Group-25" transform="translate(504.000000, 62.000000)" fill-rule="nonzero">
                                <rect id="Rectangle" fill="url(#linearGradient-9)" x="0" y="0" width="48.1173231" height="334"></rect>
                                <rect id="Rectangle" fill="url(#linearGradient-10)" x="24.0586616" y="0" width="24.0586616" height="334"></rect>
                                <polygon id="Rectangle-Copy-30" fill="#F9F9F9" points="0 -4.26325641e-14 48.1173231 -4.26325641e-14 23.8871673 118.472761"></polygon>
                                <polygon id="Rectangle" fill="#EAEAEA" points="8.01955385 7.12618111 40.0977693 7.12618111 36.5335231 26.7231792 11.5838 26.7231792"></polygon>
                            </g>
                            <rect id="Rectangle-Copy-96" fill="#E7E4E5" x="666" y="253" width="65" height="144"></rect>
                            <rect id="Rectangle-Copy-82" fill="#E8E8E8" x="236" y="244" width="45" height="67"></rect>
                            <rect id="Rectangle-Copy-95" fill="#E8E8E8" x="714" y="236" width="70" height="160"></rect>
                            <rect id="Rectangle-Copy-95" fill="#E4E4E4" x="765" y="266" width="28" height="130"></rect>
                            <rect id="Rectangle-Copy-83" fill="#E8E8E8" x="306" y="278" width="61" height="42"></rect>
                            <path d="M359,335 L359,204 L396,204 L396,307 L413,307 L413,335 L375,335 L359,335 Z" id="Combined-Shape" fill="#E8E8E8"></path>
                            <path d="M39.3897481,398 L39.3897481,304 L351,304 L350.999748,319 L390,319 L389.999748,334 L412.999748,334 L413,306 L599,306 L598.999748,345 L666,345 L666,397 L598.999748,397 L599,398 L418,398 L413,398 L39.3897481,398 Z" id="Combined-Shape" fill="url(#linearGradient-11)"></path>
                        </g>
                        <g id="Group-7" opacity="0.400000006" transform="translate(778.000000, 242.000000)" fill-rule="nonzero">
                            <rect id="Rectangle-Copy-2" fill="url(#linearGradient-12)" x="42.9904442" y="0.607552138" width="42.0019912" height="185.583811"></rect>
                            <polygon id="Rectangle-Copy" fill="url(#linearGradient-13)" points="17.9679814 32.5741416 57.2889944 32.5741416 57.2889944 230.574142 0.0947936389 230.574142 0.0947936389 68.2453427"></polygon>
                        </g>
                        <g id="小蛮腰" transform="translate(422.000000, 0.000000)">
                            <g id="Rectangle-+-Rectangle-Copy-47-Mask">
                                <mask id="mask-16" fill="white">
                                    <use xlink:href="#path-15"></use>
                                </mask>
                                <use id="Mask" fill="url(#linearGradient-14)" fill-rule="nonzero" xlink:href="#path-15"></use>
                                <polygon id="Rectangle" fill="#F6F6F6" fill-rule="nonzero" mask="url(#mask-16)" points="14.9824561 205.963636 46.0175439 205.963636 46.0175439 216.510674 14.9824561 216.690909"></polygon>
                                <polygon id="Rectangle-Copy-48" fill="#F6F6F6" fill-rule="nonzero" mask="url(#mask-16)" points="14.9824561 158.763636 46.0175439 158.763636 45.5703273 167.345455 14.9824561 167.345455"></polygon>
                                <rect id="Rectangle-Copy-47" fill="#F6F6F6" fill-rule="nonzero" mask="url(#mask-16)" x="-4.28070175" y="175.927273" width="71.7017544" height="20.3818182"></rect>
                            </g>
                        </g>
                    </g>
                </g>
            </g>
        </g>
    </g>
</svg>