<?xml version="1.0" encoding="UTF-8"?>
<svg width="835px" height="369px" viewBox="0 0 835 369" version="1.1" xmlns="http://www.w3.org/2000/svg" xmlns:xlink="http://www.w3.org/1999/xlink">
    <!-- Generator: Sketch 56.3 (81716) - https://sketch.com -->
    <title>front-scene</title>
    <desc>Created with Sketch.</desc>
    <defs>
        <linearGradient x1="0%" y1="100%" x2="100%" y2="100%" id="linearGradient-1">
            <stop stop-color="#EEEEEE" stop-opacity="0" offset="0%"></stop>
            <stop stop-color="#E2E2E2" stop-opacity="0.831770719" offset="5.37373311%"></stop>
            <stop stop-color="#E0E0E0" offset="47.9816529%"></stop>
            <stop stop-color="#E3E3E3" stop-opacity="0.812534098" offset="94.0824381%"></stop>
            <stop stop-color="#EEEEEE" stop-opacity="0" offset="100%"></stop>
        </linearGradient>
        <rect id="path-2" x="0" y="0" width="486" height="278" rx="6"></rect>
        <filter x="-1.9%" y="-2.5%" width="103.7%" height="106.5%" filterUnits="objectBoundingBox" id="filter-3">
            <feMorphology radius="2" operator="dilate" in="SourceAlpha" result="shadowSpreadOuter1"></feMorphology>
            <feOffset dx="0" dy="2" in="shadowSpreadOuter1" result="shadowOffsetOuter1"></feOffset>
            <feGaussianBlur stdDeviation="2" in="shadowOffsetOuter1" result="shadowBlurOuter1"></feGaussianBlur>
            <feComposite in="shadowBlurOuter1" in2="SourceAlpha" operator="out" result="shadowBlurOuter1"></feComposite>
            <feColorMatrix values="0 0 0 0 0.00784313725   0 0 0 0 0.321568627   0 0 0 0 0.580392157  0 0 0 0.141553759 0" type="matrix" in="shadowBlurOuter1"></feColorMatrix>
        </filter>
        <linearGradient x1="0%" y1="100%" x2="100%" y2="100%" id="linearGradient-4">
            <stop stop-color="#EEEEEE" stop-opacity="0" offset="0%"></stop>
            <stop stop-color="#E0E0E0" offset="47.9816529%"></stop>
            <stop stop-color="#EEEEEE" offset="100%"></stop>
        </linearGradient>
        <path d="M35.1178111,7.77986502 C34.9938648,6.99554535 35.2392567,6.61059781 32.1460619,4.40097505 C29.052867,2.19135229 24.0587668,-0.414713863 19.0287614,0.719459457 C12.5009857,2.19135229 9.90827205,6.58126803 7.39103288,8.71545993 C5.12180941,10.6394389 2.8449698,10.863813 1.49564074,13.2511564 C0.146311673,15.6384998 -0.571581951,22.5067741 0.601723302,25.2373844 C2.22023697,29.0041194 5.41196654,30.018533 7.74190661,31.1037367 C11.7377909,32.9648783 17.3858837,30.9992648 17.5227048,30.6736572 C18.581075,28.1549418 24.2780588,21.0497961 27.7046569,18.0646796 C30.2244028,15.8695767 35.6995466,11.461031 35.1178111,7.77986502 Z" id="path-5"></path>
        <rect id="path-7" x="5" y="0" width="160" height="68" rx="5"></rect>
        <filter x="-6.2%" y="-11.8%" width="112.5%" height="129.4%" filterUnits="objectBoundingBox" id="filter-8">
            <feMorphology radius="1.5" operator="dilate" in="SourceAlpha" result="shadowSpreadOuter1"></feMorphology>
            <feOffset dx="0" dy="2" in="shadowSpreadOuter1" result="shadowOffsetOuter1"></feOffset>
            <feGaussianBlur stdDeviation="1.5" in="shadowOffsetOuter1" result="shadowBlurOuter1"></feGaussianBlur>
            <feColorMatrix values="0 0 0 0 0   0 0 0 0 0   0 0 0 0 0  0 0 0 0.0794635052 0" type="matrix" in="shadowBlurOuter1"></feColorMatrix>
        </filter>
        <rect id="path-9" x="0" y="0" width="131" height="250" rx="8"></rect>
        <filter x="-6.1%" y="-2.4%" width="112.2%" height="106.4%" filterUnits="objectBoundingBox" id="filter-10">
            <feMorphology radius="1" operator="dilate" in="SourceAlpha" result="shadowSpreadOuter1"></feMorphology>
            <feOffset dx="0" dy="2" in="shadowSpreadOuter1" result="shadowOffsetOuter1"></feOffset>
            <feGaussianBlur stdDeviation="2" in="shadowOffsetOuter1" result="shadowBlurOuter1"></feGaussianBlur>
            <feComposite in="shadowBlurOuter1" in2="SourceAlpha" operator="out" result="shadowBlurOuter1"></feComposite>
            <feColorMatrix values="0 0 0 0 0.00784313725   0 0 0 0 0.321568627   0 0 0 0 0.580392157  0 0 0 0.141553759 0" type="matrix" in="shadowBlurOuter1"></feColorMatrix>
        </filter>
        <linearGradient x1="0%" y1="100%" x2="100%" y2="100%" id="linearGradient-11">
            <stop stop-color="#EEEEEE" stop-opacity="0" offset="0%"></stop>
            <stop stop-color="#E0E0E0" offset="47.9816529%"></stop>
            <stop stop-color="#EEEEEE" offset="100%"></stop>
        </linearGradient>
    </defs>
    <g id="Page-1" stroke="none" stroke-width="1" fill="none" fill-rule="evenodd">
        <g id="flutter-io" transform="translate(-352.000000, -345.000000)">
            <g id="header-image" transform="translate(0.000000, 64.000000)">
                <g id="编组-6" transform="translate(0.000000, 67.000000)">
                    <g id="front-scene" transform="translate(352.000000, 214.000000)">
                        <g id="package-1" transform="translate(29.000000, 268.000000)">
                            <rect id="矩形" fill="url(#linearGradient-1)" opacity="0.465053013" x="0" y="59" width="170" height="3"></rect>
                            <rect id="矩形" fill="#DDEEFF" x="3" y="0" width="135" height="61" rx="5"></rect>
                            <rect id="矩形" fill="#46A8E2" x="16" y="10" width="56" height="11"></rect>
                            <rect id="矩形备份-6" fill="#46A8E2" x="16" y="26" width="32" height="5"></rect>
                            <g id="编组-8" transform="translate(16.000000, 37.000000)" fill="#46A8E2">
                                <rect id="矩形备份-8" x="0" y="0" width="59" height="5"></rect>
                            </g>
                            <rect id="矩形备份-11" fill="#46A8E2" x="16" y="48" width="44" height="5"></rect>
                        </g>
                        <g id="element备份-2" transform="translate(123.000000, 39.000000)">
                            <g id="矩形">
                                <use fill="black" fill-opacity="1" filter="url(#filter-3)" xlink:href="#path-2"></use>
                                <use stroke="#E4E4E4" stroke-width="4" fill="#EDF4FB" fill-rule="evenodd" xlink:href="#path-2"></use>
                            </g>
                            <path d="M6.02574096,0 L480,0 C483.313708,-6.08718376e-16 486,2.6862915 486,6 L486,33 L0.141272892,33 L0.025795941,6.02568575 C0.0116100957,2.71200761 2.68637708,0.0142408253 6.00005522,5.49800434e-05 C6.00861708,1.83267231e-05 6.01717902,-1.77478404e-15 6.02574096,0 Z" id="矩形备份" stroke="#E4E4E4" stroke-width="4" fill-opacity="0.895705857" fill="#FFFFFF"></path>
                            <g id="btns" transform="translate(10.000000, 11.000000)">
                                <ellipse id="椭圆形" fill="#85A7CF" cx="5.33228457" cy="4.99961636" rx="5.33228457" ry="4.99961636"></ellipse>
                                <ellipse id="椭圆形备份-4" fill="#86BB4C" cx="21.0380181" cy="4.99961636" rx="5.33228457" ry="4.99961636"></ellipse>
                                <ellipse id="椭圆形备份-5" fill="#4285F4" cx="36.7437516" cy="4.99961636" rx="5.33228457" ry="4.99961636"></ellipse>
                            </g>
                            <path d="M40,261 L446.712598,261 C447.570866,248.273544 448,234.771466 448,220.493767 C448,199.077217 445.553234,127 430.918807,127 C416.28438,127 399.191185,157.298595 399.191185,157.298595 C399.191185,157.298595 381.250536,193.395276 366.567106,198.588185 C356.778153,202.050125 349.89037,202.050125 345.903756,198.588185 C337.749301,190.502855 330.975979,176.739658 325.583792,157.298595 C317.495511,128.137 312.022784,127 299.713399,127 C287.404015,127 283.121923,140.854243 270.326742,161.238499 C257.53156,181.622755 225.984942,211.141028 194.14202,220.493767 C172.913405,226.728926 153.24518,217.89767 135.137347,194 C126.979683,178.611342 116.609427,172.796087 104.026578,176.554233 C91.4437293,180.31238 70.1015366,208.460969 40,261 Z" id="路径-4" stroke="#8CD6DF" stroke-width="3" fill-opacity="0.080201049" fill="#18D3A6"></path>
                            <rect id="矩形备份-2" fill="#8CD6DF" x="35" y="51" width="298" height="22" rx="4"></rect>
                            <rect id="矩形备份-3" fill="#8CD6DF" x="35" y="85" width="177" height="22" rx="4"></rect>
                        </g>
                        <g id="编组" transform="translate(159.500000, 241.500000) scale(-1, 1) translate(-159.500000, -241.500000) translate(0.000000, 117.000000)">
                            <path d="M6.23936287,40 L204.909822,40 C208.22353,40 210.909822,42.6862915 210.909822,46 C210.909822,46.0298348 210.909599,46.0596692 210.909154,46.0895008 L210.75997,56.0895008 C210.71106,59.3679447 208.039446,62 204.760637,62 L6.09017835,62 C2.77646985,62 0.0901783527,59.3137085 0.0901783527,56 C0.0901783527,55.9701652 0.0904008819,55.9403308 0.0908459218,55.9104992 L0.240030437,45.9104992 C0.288939744,42.6320553 2.96055413,40 6.23936287,40 Z" id="矩形备份-2" stroke="#289CB3" stroke-width="3" fill="#FFFFFF"></path>
                            <g id="human-left" transform="translate(184.000000, 0.000000)">
                                <ellipse id="椭圆形" fill="url(#linearGradient-4)" opacity="0.465053013" cx="75" cy="244.5" rx="60" ry="4.5"></ellipse>
                                <g id="Head" transform="translate(87.500000, 30.500000) scale(-1, 1) translate(-87.500000, -30.500000) translate(68.000000, 0.000000)">
                                    <g transform="translate(13.611185, 4.879808)" fill="#E5B89C">
                                        <path d="M4.87028644,20.7272396 C2.15410448,17.4767884 0.315735706,13.4933156 0.622928207,9.02971989 C1.50803534,-3.83114217 19.0681902,-1.00191638 22.4840039,5.48914238 C25.8998176,11.9802011 25.4939301,28.44531 21.0792953,29.6054433 C19.318745,30.0681028 15.5682495,28.9347722 11.75112,26.5891262 L14.1470588,43.8701923 L0,43.8701923 L4.87028644,20.7272396 Z"></path>
                                    </g>
                                    <g id="Turban" transform="translate(0.053587, 0.072115)">
                                        <mask id="mask-6" fill="white">
                                            <use xlink:href="#path-5"></use>
                                        </mask>
                                        <use fill="#333767" xlink:href="#path-5"></use>
                                    </g>
                                </g>
                                <g id="Bottom" transform="translate(82.500000, 170.500000) scale(-1, 1) translate(-82.500000, -170.500000) translate(36.000000, 98.000000)">
                                    <polygon id="Leg" fill="#E5B89C" points="26.5856 0 48.9834746 74.6380953 59.8335637 138.112988 68.3407827 138.112988 56.8759078 0"></polygon>
                                    <path d="M18.5728553,0 C20.0941732,40.980326 18.3037876,62.1187202 17.9632984,65.841961 C17.6228093,69.5652018 12.9603984,93.7068945 1.92270671,139.362879 L10.9877842,136.189399 C28.4318268,94.3161046 34.3761346,72.553814 36.3768342,67.0553501 C38.3775339,61.5568863 43.6912927,39.205103 52.3181109,0 L18.5728553,0 Z" id="Leg" fill="#E5B89C"></path>
                                    <g id="Accessories/Shoe/Flat-Sneaker" transform="translate(0.396800, 120.732218)" fill="#E4E4E4">
                                        <path d="M1.27120762,16.1195665 C0.817178497,17.4777464 0.590163934,18.5256917 0.590163934,19.2634025 C0.590163934,20.3453742 0.767457563,21.9242401 1.12204482,24 C2.35663151,24 13.45207,24 34.4083602,24 C35.2733536,21.0927044 34.7740292,19.523149 32.9103873,19.2913339 C31.0467453,19.0595188 29.4985862,18.8502083 28.2659101,18.6634025 L13.1885206,11.8298008 C12.685491,11.6018102 12.0928821,11.8247733 11.8648915,12.3278028 C11.8593438,12.3400431 11.8540434,12.3523939 11.8489935,12.3648478 L11.0143553,14.423217 C9.28911023,15.2415913 7.88716951,15.6507784 6.80853313,15.6507784 C6.08156838,15.6507784 5.12484301,15.4031738 3.93835703,14.9079644 L3.93835093,14.9079791 C2.91901283,14.482533 1.7477839,14.9639777 1.32233789,15.9833158 C1.30364718,16.0280974 1.28659247,16.0735444 1.27120762,16.1195665 Z" id="shoe"></path>
                                    </g>
                                    <g id="Accessories/Shoe/Flat-Sneaker" transform="translate(56.345600, 120.732218)" fill="#E4E4E4">
                                        <path d="M1.27120762,16.1195665 C0.817178497,17.4777464 0.590163934,18.5256917 0.590163934,19.2634025 C0.590163934,20.3453742 0.767457563,21.9242401 1.12204482,24 C2.35663151,24 13.45207,24 34.4083602,24 C35.2733536,21.0927044 34.7740292,19.523149 32.9103873,19.2913339 C31.0467453,19.0595188 29.4985862,18.8502083 28.2659101,18.6634025 L13.1885206,11.8298008 C12.685491,11.6018102 12.0928821,11.8247733 11.8648915,12.3278028 C11.8593438,12.3400431 11.8540434,12.3523939 11.8489935,12.3648478 L11.0143553,14.423217 C9.28911023,15.2415913 7.88716951,15.6507784 6.80853313,15.6507784 C6.08156838,15.6507784 5.12484301,15.4031738 3.93835703,14.9079644 L3.93835093,14.9079791 C2.91901283,14.482533 1.7477839,14.9639777 1.32233789,15.9833158 C1.30364718,16.0280974 1.28659247,16.0735444 1.27120762,16.1195665 Z" id="shoe"></path>
                                    </g>
                                    <polygon fill="#EEAC30" points="23.6096 0 33.1328 38.0273239 62.2204132 38.0273239 57.8833316 0"></polygon>
                                    <path d="M18.2528,0 C15.1193334,9.57397147 14.5241334,22.2497461 16.4672,38.0273239 L46.1500132,38.0273239 L54.3121316,0 L18.2528,0 Z" fill="#FFC931"></path>
                                </g>
                                <path d="M18.287005,42.6626141 L39.6042388,50.9197784 C44.7894291,50.9165486 49.2631101,51.4463421 53.0252819,52.5091588 C53.9776016,52.999458 55.280007,54.1614274 52.0347244,54.7758603 C48.7894418,55.3902932 45.402853,56.1822842 45.2519216,57.3832214 C45.1009901,58.5841586 47.3698746,59.3591787 46.8712588,61.0591796 C46.5388482,62.1925135 43.0955946,60.5051598 36.5414977,55.9971186 L16.930575,53.4555095 L18.287005,42.6626141 Z" id="Hand" fill="#E5B89C" transform="translate(35.518410, 52.031659) scale(-1, 1) rotate(-50.000000) translate(-35.518410, -52.031659) "></path>
                                <path d="M4.85870509,73.1325985 L16.1818092,66.7627235 C17.7728906,60.5759129 19.6729822,57.4626423 21.882084,57.4229115 C23.5794701,56.6140026 20.6207113,64.432027 23.8380493,63.7527647 C27.0553872,63.0735023 34.9098596,57.0931122 36.2622538,58.3060786 C38.2630339,60.1005843 36.4759382,65.6141976 34.3719383,68.3574521 C30.4395653,73.4845915 27.1848075,75.2387471 19.1410493,77.5374654 C14.9353572,78.739354 10.387781,81.1467516 5.4983207,84.7596583 L4.85870509,73.1325985 Z" id="Hand" fill="#E5B89C" transform="translate(20.996549, 71.061892) scale(-1, 1) rotate(-22.000000) translate(-20.996549, -71.061892) "></path>
                                <g id="Body" transform="translate(72.270032, 81.765092) scale(-1, 1) rotate(8.000000) translate(-72.270032, -81.765092) translate(27.270032, 38.265092)">
                                    <path d="M39.2686101,20.8333528 C46.4410452,21.8914376 56.2301495,21.8841038 67.4476259,16.9993075 L70.0286707,26.5990736 C61.8911066,32.494136 51.0976817,36.6870987 42.4961402,35.0748104 C35.7176514,33.8042383 33.548498,24.9771503 39.2686101,20.8333528 Z" id="Sleeve" fill="#4EA48A" transform="translate(53.004787, 26.210919) rotate(-9.000000) translate(-53.004787, -26.210919) "></path>
                                    <path d="M48.3546705,37.5946427 C55.9753642,39.3832713 68.1780661,35.8296518 84.9627762,26.9337842 C87.972122,35.294657 89.3072732,41.4641279 88.9682298,45.4421968 C75.2322961,54.2894845 63.2935761,58.8929608 53.2825029,60.2394901 C53.9964612,67.7185493 53.374752,74.8292785 50.3674773,81.2548049 C44.8938327,92.9501278 12.8426024,82.1189547 2.06599655,84.2507942 C-4.68263088,62.2274889 8.36604448,53.2773067 8.37654362,39.1855123 C8.38804131,23.7534958 20.7194203,5.54223334e-13 22.5337358,5.54223334e-13 L39.0792928,5.54223334e-13 C39.9919294,11.7820356 44.5843587,24.7664924 48.3546705,37.5946427 Z" id="Clothes" fill="#57C1A0"></path>
                                </g>
                            </g>
                        </g>
                        <g id="package-1备份" transform="translate(96.000000, 288.000000)">
                            <rect id="矩形" fill="url(#linearGradient-1)" opacity="0.465053013" x="0" y="67" width="170" height="3"></rect>
                            <g id="矩形">
                                <use fill="black" fill-opacity="1" filter="url(#filter-8)" xlink:href="#path-7"></use>
                                <use fill="#E3F8FA" fill-rule="evenodd" xlink:href="#path-7"></use>
                            </g>
                            <rect id="矩形" fill="#89C5CC" x="86" y="11" width="52" height="12"></rect>
                            <rect id="矩形备份-6" fill="#289CB3" x="86" y="29" width="34" height="6"></rect>
                            <g id="编组-8" transform="translate(86.000000, 41.000000)">
                                <rect id="矩形备份-8" fill="#289CB3" x="0" y="0" width="42" height="6"></rect>
                                <rect id="矩形备份-9" fill="#89C5CC" x="42" y="0" width="26" height="6"></rect>
                            </g>
                            <g id="编组-8" transform="translate(20.000000, 34.500000) rotate(-90.000000) translate(-20.000000, -34.500000) translate(-6.000000, 32.000000)">
                                <rect id="矩形备份-8" fill="#289CB3" x="0" y="0" width="33" height="4.28571429"></rect>
                                <rect id="矩形备份-9" fill="#89C5CC" x="32" y="0" width="20" height="4.28571429"></rect>
                            </g>
                            <g id="编组-8备份" transform="translate(32.000000, 34.500000) rotate(-90.000000) translate(-32.000000, -34.500000) translate(6.000000, 32.000000)">
                                <rect id="矩形备份-8" fill="#289CB3" x="0" y="0" width="21" height="4.28571429"></rect>
                                <rect id="矩形备份-9" fill="#89C5CC" x="21" y="0" width="31" height="4.28571429"></rect>
                            </g>
                            <g id="编组-8备份-3" transform="translate(45.000000, 34.500000) rotate(-90.000000) translate(-45.000000, -34.500000) translate(19.000000, 32.000000)">
                                <rect id="矩形备份-8" fill="#289CB3" x="0" y="0" width="33" height="4.28571429"></rect>
                                <rect id="矩形备份-9" fill="#89C5CC" x="27" y="0" width="25" height="4.28571429"></rect>
                            </g>
                            <g id="编组-8备份-4" transform="translate(57.000000, 34.500000) rotate(-90.000000) translate(-57.000000, -34.500000) translate(31.000000, 32.000000)">
                                <rect id="矩形备份-8" fill="#289CB3" x="0" y="0" width="13" height="4.28571429"></rect>
                                <rect id="矩形备份-9" fill="#89C5CC" x="13" y="0" width="39" height="4.28571429"></rect>
                            </g>
                            <g id="编组-8备份-5" transform="translate(70.000000, 34.500000) rotate(-90.000000) translate(-70.000000, -34.500000) translate(44.000000, 32.000000)">
                                <rect id="矩形备份-8" fill="#289CB3" x="0" y="0" width="35" height="4.28571429"></rect>
                                <rect id="矩形备份-9" fill="#89C5CC" x="35" y="0" width="17" height="4.28571429"></rect>
                            </g>
                            <rect id="矩形备份-7" fill="#89C5CC" x="120" y="29" width="34" height="6"></rect>
                            <rect id="矩形备份-11" fill="#289CB3" x="86" y="53" width="30" height="6"></rect>
                            <rect id="矩形备份-10" fill="#89C5CC" x="116" y="53" width="38" height="6"></rect>
                        </g>
                        <g id="编组-7" transform="translate(569.000000, 85.000000)">
                            <g id="Mobile3">
                                <g id="Container">
                                    <use fill="black" fill-opacity="1" filter="url(#filter-10)" xlink:href="#path-9"></use>
                                    <use stroke="#E4E4E4" stroke-width="2" fill="#FFFFFF" fill-rule="evenodd" xlink:href="#path-9"></use>
                                </g>
                                <circle id="Touch" stroke="#0277BD" stroke-width="2" opacity="0.5" cx="65" cy="222" r="14"></circle>
                                <g id="Camera" transform="translate(50.000000, 13.000000)" fill="#476BF1" opacity="0.495119" stroke="#476BF1">
                                    <circle id="Lens" cx="2" cy="2" r="1.5"></circle>
                                    <rect id="Sensor" x="9.5" y="0.5" width="20" height="3" rx="1.5"></rect>
                                </g>
                                <g id="Rows" transform="translate(12.000000, 28.000000)">
                                    <g id="Row">
                                        <rect id="Container" fill="#E9ECEF" x="0" y="5.7909233e-13" width="108" height="43.6764706" rx="4"></rect>
                                        <g id="Text-Stuff" transform="translate(11.000000, 13.102941)" fill="#46A8E2">
                                            <rect id="Label" x="0" y="0" width="61" height="6.55147059" rx="3"></rect>
                                            <rect id="Label" x="5.15143483e-14" y="10.9191176" width="24.8356164" height="6.55147059" rx="3"></rect>
                                        </g>
                                        <g id="Check" transform="translate(87.847328, 14.838235)">
                                            <circle id="Background" fill="#46A8E2" cx="7" cy="7" r="7"></circle>
                                            <circle id="Indicator" fill="#F2F2F2" cx="7" cy="7" r="3"></circle>
                                        </g>
                                    </g>
                                    <g id="Row" transform="translate(0.000000, 50.147059)">
                                        <rect id="Background" fill="#E9ECEF" x="0" y="9.73443548e-13" width="108" height="33.9705882" rx="4"></rect>
                                        <g id="Text" transform="translate(42.000000, 10.191176)" fill="#AFBCED">
                                            <rect id="Name" x="0" y="4.54747351e-13" width="44" height="5.09558824" rx="2.54779412"></rect>
                                            <rect id="Name" x="0" y="8.49264706" width="30" height="5.09558824" rx="2.54779412"></rect>
                                        </g>
                                        <circle id="Avatar" fill="#0277BD" cx="23" cy="16.9852941" r="12"></circle>
                                    </g>
                                    <g id="Row" transform="translate(0.000000, 90.588235)">
                                        <rect id="Container" fill="#E9ECEF" x="0" y="1.17950094e-12" width="108" height="33.9705882" rx="4"></rect>
                                        <g id="Text-Stuff" transform="translate(12.000000, 10.191176)" fill="#46A8E2">
                                            <rect id="Label" x="0" y="4.4408921e-16" width="59" height="5.09558824" rx="2.54779412"></rect>
                                            <rect id="Label" x="0" y="8.49264706" width="40" height="5.09558824" rx="2.54779412"></rect>
                                        </g>
                                        <g id="Check" transform="translate(87.847328, 9.985294)">
                                            <circle id="Background" fill="#46A8E2" cx="7" cy="7" r="7"></circle>
                                            <circle id="Indicator" fill="#F2F2F2" cx="7" cy="7" r="3"></circle>
                                        </g>
                                    </g>
                                    <g id="Row" transform="translate(0.000000, 131.029412)">
                                        <rect id="Background" fill="#E9ECEF" x="0" y="7.95807864e-13" width="108" height="33.9705882" rx="4"></rect>
                                        <g id="Text" transform="translate(43.000000, 10.191176)" fill="#AFBCED">
                                            <rect id="Name" x="0" y="4.54747351e-13" width="43" height="5.09558824" rx="2.54779412"></rect>
                                            <rect id="Name" x="0" y="8.49264706" width="29" height="5.09558824" rx="2.54779412"></rect>
                                        </g>
                                        <circle id="Avatar" fill="#0277BD" cx="23" cy="16.9852941" r="12"></circle>
                                    </g>
                                </g>
                            </g>
                        </g>
                        <g id="sitting-girl" transform="translate(626.000000, 0.000000)">
                            <g id="body">
                                <rect id="矩形" fill="#FFFFFF" x="7.85454545" y="60.7474747" width="39.2727273" height="24.4949495" rx="2"></rect>
                                <path d="M27.4875707,85.7884477 C31.0831496,87.4502397 53.6496677,95.2455 53.6496677,92.1525838 C53.6496677,89.0596675 28.7135005,72.2951166 24.9725437,72.2951166 C21.231587,72.2951166 19.2860313,75.7179663 19.2860313,78.8108826 C19.2860313,81.9037988 23.8919917,84.1266556 27.4875707,85.7884477 Z" id="back-leg" fill="#FFDCD3" transform="translate(36.467849, 82.582995) scale(-1, 1) translate(-36.467849, -82.582995) "></path>
                                <path d="M8.91753157,86.8027625 C12.5501584,88.4688055 36.9587586,100.941513 36.9587586,95.3646994 C36.9587586,89.7878853 10.156093,73.2749145 6.37659051,73.2749145 C2.59708799,73.2749145 0.631485848,76.7065202 0.631485848,79.8073483 C0.631485848,82.9081764 5.28490477,85.1367195 8.91753157,86.8027625 Z" id="front-leg" fill="#FFDFD7"></path>
                                <path d="M8.02061559,76.8658035 C9.15157168,77.5949817 8.67148341,77.8573186 9.76913418,75.8483505 C10.9148769,73.7513626 11.7818182,60.0569475 11.7818182,58.4212359 C11.7818182,55.2184707 7.75460057,53.8888889 5.35652263,53.8888889 C3.89468889,53.8888889 3.2576938,57.1802263 2.87648775,60.5710468 C2.632341,62.7427275 1.96363636,68.097371 1.96363636,69.3477767 C1.96363636,70.666405 1.96654374,72.0237062 2.87648775,73.1485183 C4.17667136,74.7557186 6.66817877,75.9938268 8.02061559,76.8658035 Z" id="椭圆形" fill="#FFDFD7"></path>
                                <path d="M47.5340429,73.4848485 C48.2761289,73.4848485 51.0545455,70.6428168 51.0545455,67.8268109 C51.0545455,65.010805 49.7493514,58.0463532 49.7493514,57.1224868 C49.7493514,55.33662 48.5030166,53.8888889 46.9655848,53.8888889 C45.4281529,53.8888889 44.1818182,55.33662 44.1818182,57.1224868 C44.1818182,58.9083536 45.9966111,73.4848485 47.5340429,73.4848485 Z" id="椭圆形" fill="#FFDFD7"></path>
                                <path d="M5.86343043,37.6795412 C7.64008809,36.262181 10.1699925,36.0756578 12.8047011,35.3903513 C15.2711636,34.7488068 17.7893865,33.5632243 21.0078127,33.5632243 C24.515237,33.5632243 27.9842527,33.000515 32.3066959,33.5632243 C34.9290574,33.9046117 41.6321125,35.4294443 45.821741,36.8567686 C47.5382841,37.4415612 48.078471,42.1475884 48.6808021,46.381681 C49.5486022,52.4818906 50.0365085,55.3095469 50.0727273,55.6337902 L42.3800333,55.6337902 C24.5176038,56.7263365 14.0097683,57.0694072 10.8565269,56.6630024 C7.70328541,56.2565976 5.06626131,56.2565976 2.94545455,56.6630024 L5.52815931,38.284093" id="tshirt" fill="#F3B800"></path>
                                <g id="shadow" transform="translate(11.781818, 44.090909)" fill="#D39F00">
                                    <path d="M2.24721067,0 C0.749070223,7.71472501 0,11.8766691 0,12.4858323 C0,13.0949955 1.30909091,12.5977412 3.92727273,10.9940693 L3.20245872,8.84435326 L2.24721067,0 Z" id="路径"></path>
                                    <polygon id="路径-2" points="28.054422 0 30.4363636 11.2989743 25.5272727 12.7373737 25.5272727 10.7112187 27.0368191 8.56389128"></polygon>
                                </g>
                                <path d="M20.6181818,27.4343434 L33.3818182,27.4343434 L33.3818182,34.0205912 C31.2000357,37.0324328 29.0526978,38.5383536 26.9398043,38.5383536 C24.8269109,38.5383536 22.7197034,37.0324328 20.6181818,34.0205912 L20.6181818,27.4343434 Z" id="矩形" fill="#F4D1C8"></path>
                                <path d="M27.4909091,30.3737374 C30.7309091,30.3737374 38.2909091,25.3290267 38.2909091,19.1060606 C38.2909091,12.8830946 33.4555844,7.83838384 27.4909091,7.83838384 C21.5262338,7.83838384 16.6909091,12.8830946 16.6909091,19.1060606 C16.6909091,25.3290267 24.2509091,30.3737374 27.4909091,30.3737374 Z" id="椭圆形" fill="#FFDFD7"></path>
                                <path d="M4.96289089,32.1206539 C5.11685381,32.5372212 8.28862644,40.7756719 12.464604,46.7064908 C16.5390983,52.4931807 21.7823152,55.5699004 22.003797,54.7329351 C22.3027837,53.603084 22.3027837,44.775468 22.003797,28.2500874 C19.9297536,26.3564931 18.641269,24.829868 18.1383432,23.6702119 C17.2673298,21.6618123 17.1811127,20.1262186 17.6176553,19.1059807 C18.6926769,16.5935622 23.4767425,17.2650927 26.7896045,15.541366 C31.807983,12.9302359 34.8561691,8.0919161 36.9636952,13.5989484 C38.3687127,17.2703033 38.5412194,20.2117482 37.4812155,22.4232831 C38.8675344,21.3437212 39.733903,19.918172 40.0803213,18.1466356 C40.4723257,16.1419779 40.2347579,11.3518366 40.0803213,10.3837815 C39.1910766,4.80972816 32.8135577,0 26.7896045,0 C20.7656513,0 12.464604,5.35746255 12.464604,11.3626168 C12.464604,12.8319587 9.96403297,17.2936301 4.96289089,24.7476313 C4.27247878,27.7949775 4.27247878,30.2526518 4.96289089,32.1206539 Z" id="椭圆形备份-6" fill="#6A4B43"></path>
                            </g>
                            <g id="laptop" transform="translate(9.000000, 52.000000)">
                                <rect id="矩形" fill="#F9F9FB" x="0" y="0" width="39" height="25" rx="2"></rect>
                                <ellipse id="椭圆形" fill="#ECEEF4" cx="19.5" cy="12" rx="2.925" ry="3"></ellipse>
                            </g>
                        </g>
                        <g id="humaaan-3" transform="translate(745.000000, 244.000000) scale(-1, 1) translate(-745.000000, -244.000000) translate(655.000000, 119.000000)">
                            <ellipse id="椭圆形" fill="url(#linearGradient-11)" opacity="0.465053013" cx="76.5" cy="242.5" rx="76.5" ry="7.5"></ellipse>
                            <g id="Bottom/Standing/Sprint" transform="translate(15.000000, 110.000000)">
                                <path d="M113.93888,-5.39188953 C103.462803,3.15407076 107.586188,78.2514758 106.887597,79.1956284 C106.577113,79.6152517 89.9574534,83.1612267 57.0286197,89.8335535 L58.4607038,95.6478544 C96.9895472,93.8009837 117.374334,91.4476451 119.615065,88.5878386 C122.823149,84.4934148 126.756708,61.5700141 131.415743,19.8176365 L113.93888,-5.39188953 Z" id="Leg" fill="#D4A181" transform="translate(94.222181, 45.127982) rotate(-55.000000) translate(-94.222181, -45.127982) "></path>
                                <path d="M62.5962885,83.724054 L65.1172047,93.0887842 C93.8458316,96.4417723 112.773712,92.3875366 119.427396,86.0512298 C123.863185,81.8270254 127.807088,58.965963 131.259104,17.4680428 L112.56355,-9.23197629 C87.6232529,9.58908875 102.61797,71.3717035 101.982253,72.7836384 C101.346536,74.1955733 86.2008332,75.2862043 62.5962885,83.724054 Z" id="Pant" fill="#AFB9C5" transform="translate(96.927696, 42.531444) rotate(-55.000000) translate(-96.927696, -42.531444) "></path>
                                <g id="Accessories/Shoe/Flat-Sneaker" transform="translate(122.848741, 102.607504) rotate(20.000000) translate(-122.848741, -102.607504) translate(106.075436, 91.649795)" fill="#E4E4E4">
                                    <path d="M1.09635334,15.2054774 C0.737467397,16.3076076 0.558024427,17.1701837 0.558024427,17.7932058 C0.558024427,18.7926007 0.725662891,20.2509663 1.06093982,22.1683028 C2.22829263,22.1683028 12.7194889,22.1683028 32.5345287,22.1683028 C33.3524157,19.482894 32.8802839,18.0331283 31.1181333,17.8190055 C29.3559827,17.6048827 27.8921342,17.4115469 26.7265879,17.2389982 L12.5875468,10.9788571 C12.0405185,10.7366573 11.4007227,10.9837695 11.1585228,11.5307978 C11.1551061,11.5385146 11.1517797,11.5462712 11.1485443,11.5540658 L10.4145288,13.3224268 C8.78323819,14.0783421 7.45764522,14.4562998 6.43774988,14.4562998 C5.7960595,14.4562998 4.96503915,14.2569833 3.94468882,13.8583503 L3.94468401,13.8583626 C2.83022747,13.4229639 1.57382159,13.9734491 1.13842292,15.0879056 C1.12327294,15.1266838 1.10924392,15.1658907 1.09635334,15.2054774 Z" id="shoe"></path>
                                </g>
                                <polygon id="Leg" fill="#D4A181" points="71.4927765 0 43.0353725 68.0621149 15.0661736 125.602896 21.6650129 125.602896 93.8610447 0"></polygon>
                                <g id="Accessories/Shoe/Flat-Sneaker" transform="translate(13.198666, 109.029203)" fill="#E4E4E4">
                                    <path d="M1.09635334,15.2054774 C0.737467397,16.3076076 0.558024427,17.1701837 0.558024427,17.7932058 C0.558024427,18.7926007 0.725662891,20.2509663 1.06093982,22.1683028 C2.22829263,22.1683028 12.7194889,22.1683028 32.5345287,22.1683028 C33.3524157,19.482894 32.8802839,18.0331283 31.1181333,17.8190055 C29.3559827,17.6048827 27.8921342,17.4115469 26.7265879,17.2389982 L12.5875468,10.9788571 C12.0405185,10.7366573 11.4007227,10.9837695 11.1585228,11.5307978 C11.1551061,11.5385146 11.1517797,11.5462712 11.1485443,11.5540658 L10.4145288,13.3224268 C8.78323819,14.0783421 7.45764522,14.4562998 6.43774988,14.4562998 C5.7960595,14.4562998 4.96503915,14.2569833 3.94468882,13.8583503 L3.94468401,13.8583626 C2.83022747,13.4229639 1.57382159,13.9734491 1.13842292,15.0879056 C1.12327294,15.1266838 1.10924392,15.1658907 1.09635334,15.2054774 Z" id="shoe"></path>
                                </g>
                                <path d="M17.5919244,113.64946 L32.2546183,116.388887 C43.5917721,99.7835672 91.0382236,31.6961803 96.2402761,2.84217094e-14 L63.5978144,2.84217094e-14 C46.2255138,22.9131291 28.3985734,96.7694561 17.5919244,113.64946 Z" id="Pant" fill="#AFB9C5"></path>
                            </g>
                            <g id="Head/Front/Short-1" transform="translate(101.314538, 37.096765) rotate(14.000000) translate(-101.314538, -37.096765) translate(63.853730, 8.456721)">
                                <g id="Head" stroke-width="1" transform="translate(29.843923, 16.938554)" fill="#D4A181">
                                    <path d="M4.56627165,18.8455767 C2.01964018,15.8902083 0.296026737,12.2683636 0.584043555,8.20998267 C1.41390021,-3.48334292 17.8779087,-0.910960277 21.0804992,4.99082634 C24.2830897,10.892613 23.9025387,25.8629841 19.7634758,26.917798 C18.1128233,27.3384564 14.5964425,26.3080119 11.0175873,24.1753087 L13.263966,39.8875628 L0,39.8875628 L4.56627165,18.8455767 Z"></path>
                                </g>
                                <path d="M45.0746536,22.785311 C43.2746946,23.7807581 41.9937214,25.6460417 40.4517401,28.0927395 C40.0761836,27.9468001 39.667175,27.8666534 39.2392326,27.8666534 C37.4078611,27.8666534 35.9232411,29.3344565 35.9232411,31.1450833 C35.9232411,32.0642557 36.3058468,32.895078 36.9221919,33.4903703 C36.1549152,34.5611083 35.29502,35.6796351 34.3096721,36.8338093 C30.6325978,34.6527037 27.8976793,28.2958026 31.4085797,22.1590426 C34.4293291,9.86666758 51.5461777,17.4964109 54.8393171,15.4232515 C55.5591344,19.8839421 53.2373851,23.4806931 45.0746536,22.785311 Z" id="Hair" fill="#191847"></path>
                            </g>
                            <g id="Body/Hoodie" transform="translate(96.902595, 105.219892) rotate(1.000000) translate(-96.902595, -105.219892) translate(26.388134, 53.722892)">
                                <path d="M105.19453,50.6809134 L122.782865,63.5548994 C127.553183,64.8379661 131.53863,66.4343178 134.739205,68.3439545 C135.495237,69.0306476 136.408972,70.4213151 133.273527,70.180973 C130.138081,69.9406308 126.829219,69.8283863 126.396589,70.8944007 C125.963958,71.9604152 127.86136,73.2352516 126.986825,74.6735843 C126.403802,75.6324727 123.649366,73.2280955 118.723519,67.4604527 L101.306454,60.2612499 L105.19453,50.6809134 Z M37.6641945,51.1252263 L49.1867725,51.1703936 C42.0721123,74.0639184 38.231253,86.2110793 37.6641945,87.6118762 C36.3883131,90.7636693 39.0882498,95.5637955 40.2428499,98.1433475 C36.4823558,99.820648 36.8830405,93.6089195 32.1392784,95.8087926 C27.8093924,97.8167348 24.5156588,101.454992 19.5131011,98.3781813 C18.898066,97.9999056 18.2240878,96.5756291 19.8525044,95.4626324 C23.9094841,92.6897516 29.7558376,87.8367107 30.545772,86.2392947 C31.6229888,84.0609326 33.9957963,72.3562432 37.6641945,51.1252263 Z" id="Skin" fill="#B28B67"></path>
                                <path d="M67.6819512,5.27269309 L72.3606835,4.04507019 C91.311377,17.6781204 101.100336,46.1975884 124.052985,59.7511023 L119.41571,66.6300088 C81.536365,65.2836008 69.1368928,30.5368806 67.6819512,5.27269309 Z" id="Coat-Back" fill="#69A1AC" transform="translate(95.867468, 35.337540) rotate(5.000000) translate(-95.867468, -35.337540) "></path>
                                <path d="M49.6249499,62.6562309 C68.7425515,62.6562309 82.8050586,62.6562309 91.8124711,62.6562309 C93.7402257,62.6562309 93.3769771,59.8815696 93.0983085,58.4814603 C89.8821361,42.3225067 77.3274189,24.9039366 77.3274189,1.90207295 L65.1585518,0 C55.0933354,16.1358519 51.6126091,36.0023527 49.6249499,62.6562309 Z" id="Shirt" fill="#DDE3E9"></path>
                                <path d="M49.9639662,15.8607975 C48.196591,15.3543976 46.7970128,14.1733152 45.7652316,12.3175501 C41.317489,4.31782542 42.923777,-0.0866155259 47.6770032,-1.53438014 C52.4302294,-2.98214475 56.6691119,-1.0658141e-14 64.2422719,-3.10862447e-15 C64.6541887,-2.66453526e-15 65.0314581,0.025739913 65.3740801,0.077219739 L69.1835692,0.293901662 C80.1134086,37.2173584 83.1277931,61.8521139 78.2267227,74.1981682 L45.0218576,74.1981682 C43.0545046,78.770903 41.1719139,82.6182154 39.3740853,85.7401055 L30.3263583,85.7401055 C29.47484,58.2961766 36.0207093,35.003074 49.9639662,15.8607975 Z" id="Coat-Front" fill="#69A1AC"></path>
                                <path d="M52.2524413,55.235113 C53.2967279,63.9445436 54.9940429,70.265562 57.3443866,74.1981682 L45.0218576,74.1981682 C47.3167198,68.8642008 49.7269144,62.5431825 52.2524413,55.235113 Z" id="Shade" fill-opacity="0.1" fill="#000000"></path>
                            </g>
                        </g>
                    </g>
                </g>
            </g>
        </g>
    </g>
</svg>